# xmcd
#
# Track frame offsets:
#	150
#	11375
#	26996
#	44061
#	60178
#	75686
#	90114
#	105669
#	123643
#	137285
#	151739
#	166114
#	182325
#	198005
#	208575
#	222801
#
# Disc length: 3182 seconds
#
# Revision: 0
# Processed by: cddbd v1.5.2PL0 Copyright (c) Steve Scherf et al.
# Submitted via: audiograbber 1.83.01
#
DISCID=bc0c6c10
DTITLE=Various Artist - CDX 14
DYEAR=1991
DGENRE=Country
TTITLE0=The Remingtons - A Long Time Ago
TTITLE1=Great Plains - A Picture Of You
TTITLE2=Karen Tobin - Carolina Smokey Moon
TTITLE3=Alex Harvey - Cool Drink Of Water
TTITLE4=Anne Murray - Everyday
TTITLE5=Randy Travis - Forever Together
TTITLE6=Eddy Raven - I Know That Car
TTITLE7=George Fox - I Know Where You Go
TTITLE8=Alison Krauss - I've Got That Old Feeling
TTITLE9=Larry Boone - It Wouldn't Kill Me
TTITLE10=Clinton Gregory - Satisfy Me And I'll Satisfy You
TTITLE11=George Strait - The Chill Of An Early Fall
TTITLE12=James Blundell - Time On His Hands
TTITLE13=Buddy Emmons - Triple Play
TTITLE14=Shenandoah - When You Were Mine
TTITLE15=The Desert Rose Band - You Can Go Home
EXTD=
EXTT0=
EXTT1=
EXTT2=
EXTT3=
EXTT4=
EXTT5=
EXTT6=
EXTT7=
EXTT8=
EXTT9=
EXTT10=
EXTT11=
EXTT12=
EXTT13=
EXTT14=
EXTT15=
PLAYORDER=
